#!OML:ASF G:\JayActor3\Patient Classification 1\Patient 1\Session 6\male.ASF
:FULLY-SPECIFIED
:DEGREES
510
root 34.956 16.1506 -17.8281 -1.22406 -73.6355 -4.25616
lowerback 7.72786 -1.12733 -0.106598
upperback -3.47691 -1.52999 0.0268391
thorax -8.00151 -0.744925 0.310946
lowerneck -6.36196 6.2889 7.73124
upperneck 13.0427 8.29362 -5.3569
head 5.52502 4.05624 -2.35197
rclavicle -2.45251e-014 -7.7526e-015
rhumerus -44.9061 12.1799 -85.001
rradius 38.4791
rwrist -1.5768
rhand -15.9471 -5.64451
rfingers 7.12502
rthumb 10.2511 -35.3747
lclavicle -2.45251e-014 -7.7526e-015
lhumerus -46.5402 -16.7105 84.5599
lradius 38.2775
lwrist 23.3054
lhand -8.1611 7.67646
lfingers 7.12502
lthumb 17.7538 36.886
rfemur -10.8705 -8.43765 8.61485
rtibia 69.2693
rfoot 12.8754 -7.86625
rtoes 2.02939
lfemur -2.81128 21.0822 -19.4129
ltibia 18.4664
lfoot -11.3288 6.19708
ltoes 4.52906
511
root 34.8931 16.1508 -17.7616 -1.42687 -73.7397 -4.12264
lowerback 7.84427 -1.21388 -0.204774
upperback -3.42708 -1.65733 0.0108507
thorax -8.01284 -0.801984 0.369731
lowerneck -6.22523 6.35551 7.82906
upperneck 13.0532 8.40082 -5.49772
head 5.52255 4.10552 -2.40683
rclavicle 6.73135e-014 1.23246e-014
rhumerus -45.1302 11.8909 -84.6506
rradius 38.5001
rwrist -1.6631
rhand -16.0649 -5.6608
rfingers 7.12502
rthumb 10.1375 -35.3966
lclavicle 6.73135e-014 1.23246e-014
lhumerus -45.982 -17.0335 84.1798
lradius 38.5394
lwrist 23.3969
lhand -8.4495 7.72552
lfingers 7.12502
lthumb 17.4763 36.96
rfemur -12.2377 -9.18427 8.52446
rtibia 70.6207
rfoot 11.8034 -7.58529
rtoes 1.41487
lfemur -2.19002 21.0461 -19.4838
ltibia 18.1466
lfoot -11.5456 6.29293
ltoes 4.65914
512
root 34.8296 16.1509 -17.6964 -1.46821 -73.8055 -4.1487
lowerback 7.9409 -1.30627 -0.263602
upperback -3.3776 -1.78696 0.0121188
thorax -8.01328 -0.861809 0.424732
lowerneck -6.10489 6.41825 7.90812
upperneck 13.0819 8.50176 -5.61879
head 5.52668 4.15182 -2.45243
rclavicle -2.80783e-015 -5.96354e-016
rhumerus -45.3688 11.612 -84.296
rradius 38.5108
rwrist -1.72168
rhand -16.1585 -5.68598
rfingers 7.12502
rthumb 10.0472 -35.4261
lclavicle -2.80783e-015 -5.96354e-016
lhumerus -45.3995 -17.3565 83.8007
lradius 38.7665
lwrist 23.495
lhand -8.74181 7.74963
lfingers 7.12502
lthumb 17.195 37.0088
rfemur -13.5603 -9.9141 8.55991
rtibia 71.793
rfoot 10.6433 -7.31333
rtoes 0.582954
lfemur -1.60981 20.9399 -19.5126
ltibia 17.8818
lfoot -11.7896 6.40738
ltoes 4.82256
513
root 34.765 16.1507 -17.6323 -1.35628 -73.8525 -4.32525
lowerback 8.0145 -1.40124 -0.286369
upperback -3.32811 -1.9148 0.0292462
thorax -8.00065 -0.922307 0.47552
lowerneck -5.99603 6.47717 7.97629
upperneck 13.1201 8.59679 -5.72822
head 5.53449 4.19526 -2.49274
rclavicle -2.16178e-014 -1.59028e-015
rhumerus -45.6173 11.3565 -83.9478
rradius 38.4992
rwrist -1.74387
rhand -16.2404 -5.71814
rfingers 7.12502
rthumb 9.96827 -35.4621
lclavicle -2.16178e-014 -1.59028e-015
lhumerus -44.7886 -17.6485 83.4031
lradius 38.9542
lwrist 23.5684
lhand -8.99446 7.74406
lfingers 7.12502
lthumb 16.9518 37.0243
rfemur -14.8425 -10.6026 8.71767
rtibia 72.7859
rfoot 9.44032 -7.05888
rtoes -0.321908
lfemur -1.06318 20.7586 -19.5054
ltibia 17.6632
lfoot -12.0636 6.56369
ltoes 5.02843
514
root 34.6995 16.1505 -17.5693 -1.17822 -73.8771 -4.55773
lowerback 8.05713 -1.49625 -0.302614
upperback -3.27668 -2.04142 0.0528644
thorax -7.96772 -0.982565 0.528464
lowerneck -5.9128 6.52548 8.00738
upperneck 13.1674 8.67638 -5.81052
head 5.54572 4.23066 -2.51913
rclavicle 3.15571e-015 -8.15017e-015
rhumerus -45.8665 11.1077 -83.6011
rradius 38.4621
rwrist -1.73099
rhand -16.2785 -5.76418
rfingers 7.12502
rthumb 9.93152 -35.5099
lclavicle 3.15571e-015 -8.15017e-015
lhumerus -44.1449 -17.9051 82.9799
lradius 39.1089
lwrist 23.5945
lhand -9.17007 7.69211
lfingers 7.12502
lthumb 16.7827 36.9868
rfemur -16.0889 -11.2531 8.96362
rtibia 73.6043
rfoot 8.22978 -6.81691
rtoes -1.23876
lfemur -0.550511 20.5061 -19.4929
ltibia 17.4824
lfoot -12.3625 6.75375
ltoes 5.2782
515
root 34.6329 16.1498 -17.5076 -0.965312 -73.8887 -4.81953
lowerback 8.07857 -1.58862 -0.321949
upperback -3.22127 -2.16432 0.0823324
thorax -7.9177 -1.04088 0.58799
lowerneck -5.86533 6.56808 7.99501
upperneck 13.2245 8.74605 -5.85705
head 5.56189 4.26078 -2.52706
rclavicle 3.65018e-014 -2.78299e-015
rhumerus -46.1113 10.8735 -83.2561
rradius 38.392
rwrist -1.6792
rhand -16.3198 -5.76287
rfingers 7.12502
rthumb 9.8916 -35.5105
lclavicle 3.65018e-014 -2.78299e-015
lhumerus -43.465 -18.108 82.5255
lradius 39.236
lwrist 23.5667
lhand -9.25611 7.61689
lfingers 7.12502
lthumb 16.6999 36.9186
rfemur -17.2965 -11.8525 9.28703
rtibia 74.2531
rfoot 7.01704 -6.59777
rtoes -2.02968
lfemur -0.0641623 20.1937 -19.4803
ltibia 17.3364
lfoot -12.685 6.9769
ltoes 5.55716
516
root 34.5654 16.1484 -17.4473 -0.746947 -73.8952 -5.08293
lowerback 8.08431 -1.67458 -0.352315
upperback -3.1636 -2.27971 0.113697
thorax -7.85548 -1.0951 0.653912
lowerneck -5.85334 6.60249 7.94358
upperneck 13.295 8.80204 -5.86795
head 5.58393 4.28391 -2.51754
rclavicle -8.00108e-015 9.93923e-017
rhumerus -46.3573 10.6408 -82.9112
rradius 38.2986
rwrist -1.59039
rhand -16.3442 -5.74318
rfingers 7.12502
rthumb 9.86811 -35.4919
lclavicle -8.00108e-015 9.93923e-017
lhumerus -42.7588 -18.2486 82.0366
lradius 39.3475
lwrist 23.4859
lhand -9.26981 7.54974
lfingers 7.12502
lthumb 16.6867 36.8525
rfemur -18.4673 -12.3896 9.67604
rtibia 74.738
rfoot 5.77208 -6.39612
rtoes -2.71645
lfemur 0.39798 19.8378 -19.4745
ltibia 17.2261
lfoot -13.0274 7.22924
ltoes 5.82761
517
root 34.4972 16.146 -17.3883 -0.556709 -73.8902 -5.31404
lowerback 8.08455 -1.75454 -0.396336
upperback -3.10739 -2.38892 0.140643
thorax -7.79113 -1.14588 0.721616
lowerneck -5.87001 6.62775 7.86988
upperneck 13.3837 8.84224 -5.84655
head 5.61296 4.29971 -2.49461
rclavicle 6.36111e-015 -1.19271e-015
rhumerus -46.6085 10.4011 -82.566
rradius 38.1849
rwrist -1.46913
rhand -16.3273 -5.71332
rfingers 7.12502
rthumb 9.88443 -35.4613
lclavicle 6.36111e-015 -1.19271e-015
lhumerus -42.0386 -18.3295 81.5156
lradius 39.4595
lwrist 23.3696
lhand -9.20723 7.50078
lfingers 7.12502
lthumb 16.747 36.7985
rfemur -19.5961 -12.8691 10.1141
rtibia 75.0636
rfoot 4.52357 -6.21272
rtoes -3.20166
lfemur 0.831443 19.4664 -19.481
ltibia 17.1569
lfoot -13.3845 7.48023
ltoes 6.05861
518
root 34.4285 16.1426 -17.3307 -0.358549 -73.8765 -5.54599
lowerback 8.08029 -1.8305 -0.448365
upperback -3.05487 -2.49371 0.167662
thorax -7.72759 -1.19422 0.792995
lowerneck -5.90753 6.6502 7.77273
upperneck 13.4717 8.87614 -5.79793
head 5.64258 4.31273 -2.45928
rclavicle 2.10215e-014 -3.97569e-015
rhumerus -46.8659 10.1621 -82.222
rradius 38.062
rwrist -1.32462
rhand -16.2642 -5.68563
rfingers 7.12502
rthumb 9.94524 -35.4307
lclavicle 2.10215e-014 -3.97569e-015
lhumerus -41.3187 -18.3482 80.9684
lradius 39.5905
lwrist 23.2401
lhand -9.1177 7.48433
lfingers 7.12502
lthumb 16.8331 36.7747
rfemur -20.6906 -13.2839 10.611
rtibia 75.2336
rfoot 3.2944 -6.05453
rtoes -3.52709
lfemur 1.22803 19.0821 -19.4917
ltibia 17.1328
lfoot -13.7562 7.73259
ltoes 6.24135
519
root 34.3593 16.1381 -17.2745 -0.175036 -73.8531 -5.75942
lowerback 8.0764 -1.90391 -0.511785
upperback -3.00383 -2.59638 0.194664
thorax -7.66513 -1.24105 0.87031
lowerneck -5.88392 6.66409 7.78847
upperneck 13.5307 8.8982 -5.81581
head 5.66007 4.32253 -2.46581
rclavicle -4.3509e-014 -3.97569e-015
rhumerus -47.1268 9.93077 -81.8784
rradius 37.9375
rwrist -1.176
rhand -16.152 -5.66276
rfingers 7.12502
rthumb 10.0535 -35.4026
lclavicle -4.3509e-014 -3.97569e-015
lhumerus -40.6145 -18.3146 80.4068
lradius 39.7629
lwrist 23.129
lhand -9.02157 7.4898
lfingers 7.12502
lthumb 16.9257 36.7723
rfemur -21.7447 -13.6361 11.1527
rtibia 75.2518
rfoot 2.06114 -5.89834
rtoes -3.79138
lfemur 1.59228 18.7224 -19.5041
ltibia 17.1553
lfoot -14.1408 7.95203
ltoes 6.38233
520
root 34.2901 16.1324 -17.2196 -0.00172599 -73.8082 -5.95091
lowerback 8.07747 -1.9811 -0.586819
upperback -2.96269 -2.70553 0.221899
thorax -7.61519 -1.29049 0.955603
lowerneck -5.81803 6.67218 7.86221
upperneck 13.5647 8.91302 -5.87021
head 5.66639 4.33026 -2.49516
rclavicle 3.52843e-015 -3.97569e-015
rhumerus -47.4002 9.71343 -81.5403
rradius 37.8173
rwrist -1.03491
rhand -15.9947 -5.64815
rfingers 7.12502
rthumb 10.2053 -35.3806
lclavicle 3.52843e-015 -3.97569e-015
lhumerus -39.9497 -18.2424 79.8432
lradius 39.9959
lwrist 23.0653
lhand -8.91939 7.50282
lfingers 7.12502
lthumb 17.024 36.7768
rfemur -22.7655 -13.9355 11.7337
rtibia 75.1226
rfoot 0.82088 -5.73159
rtoes -4.07424
lfemur 1.91449 18.3949 -19.5183
ltibia 17.2213
lfoot -14.532 8.12008
ltoes 6.48229
521
root 34.2207 16.1258 -17.1659 0.18647 -73.7544 -6.14947
lowerback 8.07989 -2.05988 -0.662495
upperback -2.92761 -2.8168 0.251093
thorax -7.572 -1.3409 1.0437
lowerneck -5.72251 6.67712 7.97874
upperneck 13.5714 8.92443 -5.95543
head 5.66231 4.33726 -2.54243
rclavicle -1.90088e-014 1.35174e-014
rhumerus -47.6805 9.51432 -81.2099
rradius 37.7019
rwrist -0.910128
rhand -15.8033 -5.63731
rfingers 7.12502
rthumb 10.3899 -35.3606
lclavicle -1.90088e-014 1.35174e-014
lhumerus -39.3349 -18.1549 79.2872
lradius 40.3037
lwrist 23.07
lhand -8.84036 7.53656
lfingers 7.12502
lthumb 17.1001 36.804
rfemur -23.751 -14.1713 12.3565
rtibia 74.8488
rfoot -0.399274 -5.56353
rtoes -4.37127
lfemur 2.2077 18.0933 -19.5263
ltibia 17.3211
lfoot -14.9372 8.2509
ltoes 6.58608
